# xmcd CD database file
#
# Track frame offsets:
#	150
#	20762
#	56595
#	89565
#	120690
#	139602
#	162057
#	183515
#	211292
#	239877
#	272217
#	290760
#
# Disc length: 4227 seconds
#
# Revision: 0
# Processed by: cddbd v1.5.1PL2 Copyright (c) Steve Scherf et al.
# Submitted via: CDex 1.70beta1
#
DISCID=bc10810c
DTITLE=Bill Davis' Gateway City 7 - Get 'em While They're Hot!
DYEAR=1997
DGENRE=Jazz
TTITLE0=Back Home Again In Indiana
TTITLE1=Georgia On My Mind
TTITLE2=Blue Skies
TTITLE3=Struttin' With Some Barbecue
TTITLE4=Fish Vendor
TTITLE5=All Of Me
TTITLE6=Hindustan
TTITLE7=Bye Bye Blackbird
TTITLE8=Beale Street Blues
TTITLE9=Just A Closer Walk With Thee
TTITLE10=You'd Be So Nice To Come Home To
TTITLE11=What A Wonderful World
EXTD=YEAR: 1997
EXTT0=
EXTT1=
EXTT2=
EXTT3=
EXTT4=
EXTT5=
EXTT6=
EXTT7=
EXTT8=
EXTT9=
EXTT10=
EXTT11=
PLAYORDER=
